<svg id="Layer_1" data-name="Layer 1" xmlns="http://www.w3.org/2000/svg" width="75" height="75" viewBox="0 0 75 75">
  <defs>
    <style>
      .cls-1 {
        fill: #fff;
      }
    </style>
  </defs>
  <title>fb</title>
  <g>
    <path class="cls-1" d="M52.61,28.97272a0.11063,0.11063,0,0,0-.01839-0.01465L52.581,28.95272l-9.47218-4.73611a0.995,0.995,0,0,0-.19935-0.07127A1.05041,1.05041,0,0,0,42.64909,24.11a1.084,1.084,0,0,0-.91926.49972l-5.45334,8.86167L43.12,44.59215,52.639,29.124A0.1152,0.1152,0,0,0,52.61,28.97272Z"/>
    <polygon class="cls-1" points="33.273 31.453 33.273 41.54 42.239 46.023 33.273 31.453"/>
    <path class="cls-1" d="M43.58633,46.69694l7.38061,3.69031c0.96039,0.48016,1.739.14408,1.739-.75075V31.87763Z"/>
    <path class="cls-1" d="M31.71643,28.98707L22.46536,24.3615a1.06007,1.06007,0,0,0-.47005-0.12306,0.72491,0.72491,0,0,0-.68925.83953V45.05128a1.72721,1.72721,0,0,0,.86949,1.40686l8.148,4.074a1.32424,1.32424,0,0,0,.58758.15383,0.90617,0.90617,0,0,0,.86158-1.04939V29.07805A0.10171,0.10171,0,0,0,31.71643,28.98707Z"/>
  </g>
</svg>
