<svg id="Layer_2" data-name="Layer 2" xmlns="http://www.w3.org/2000/svg" width="1329.13291" height="576.05761" viewBox="0 0 1329.13291 576.05761">
  <defs>
    <style>
      .cls-1 {
        fill: #af2f2f;
      }
    </style>
  </defs>
  <title>usacs</title>
  <g>
    <g>
      <path class="cls-1" d="M247.51317,400.22q-21.99071,0-39.58353-5.5705a76.688,76.688,0,0,1-29.90683-17.1532q-12.31485-11.57978-18.91252-29.32095-6.59684-17.73658-6.59726-41.78206V191.1622h58.05518V305.21987q0,22.287,10.18007,32.98628,10.18466,10.70721,27.35077,10.70179,17.16653,0,27.34661-10.26175,10.18466-10.26092,10.18424-31.96035V191.1622h58.05518V304.92735q0,24.92472-6.89061,42.95467-6.89186,18.03286-19.35173,29.61431a77.9053,77.9053,0,0,1-30.20019,17.1532Q269.49847,400.215,247.51317,400.22Z"/>
      <path class="cls-1" d="M458.03529,399.92665a159.28873,159.28873,0,0,1-52.338-8.5541,126.83823,126.83823,0,0,1-43.83474-25.669l31.667-37.90672q30.7865,24.6297,66.55844,24.6297,11.43477,0,17.44572-3.65616a11.53559,11.53559,0,0,0,6.01054-10.39509v-0.58172a11.05218,11.05218,0,0,0-1.466-5.708,14.96337,14.96337,0,0,0-5.42465-4.82876,56.03778,56.03778,0,0,0-10.55511-4.5354q-6.59684-2.2002-17.15236-4.54041-16.42522-3.80034-30.49439-8.33824a93.23838,93.23838,0,0,1-24.48218-11.71021,52.99146,52.99146,0,0,1-16.4198-17.85326q-6.013-10.6797-6.01137-26.48986v-0.58172a63.15785,63.15785,0,0,1,5.42465-26.34318,58.40949,58.40949,0,0,1,15.83308-20.781,74.52864,74.52864,0,0,1,25.06974-13.61121,105.73259,105.73259,0,0,1,33.13212-4.82876q26.3886,0,47.06,6.93645a118.70877,118.70877,0,0,1,37.38417,20.50183l-28.44087,40.29276a115.48852,115.48852,0,0,0-28.88174-15.09968,87.22975,87.22975,0,0,0-28.58755-5.13129q-10.26717,0-15.393,3.807-5.13421,3.80659-5.13129,9.36417v0.58672a11.50492,11.50492,0,0,0,1.61264,6.143,14.61484,14.61484,0,0,0,5.5705,4.83376,61.16211,61.16211,0,0,0,10.8493,4.38872q6.88561,2.19895,17.44572,4.5354a251.07018,251.07018,0,0,1,31.81284,8.925,95.30848,95.30848,0,0,1,24.18966,12.44278,49.82441,49.82441,0,0,1,15.24719,17.70741q5.278,10.38968,5.278,24.72971V333.194q0,15.80641-6.01137,28.09751a60.341,60.341,0,0,1-16.859,20.9277,76.32747,76.32747,0,0,1-26.09566,13.172A119.1082,119.1082,0,0,1,458.03529,399.92665Z"/>
      <path class="cls-1" d="M639.529,189.69623h54.82989L781.73417,396.408H720.74873l-14.95467-36.65077H626.62783L611.96736,396.408h-59.8145Zm49.84528,126.07958-22.87037-58.34854L643.341,315.77581h46.03327Z"/>
      <path class="cls-1" d="M900.48477,400.51337a108.096,108.096,0,0,1-41.342-7.91737,100.91579,100.91579,0,0,1-33.573-22.137A106.64741,106.64741,0,0,1,794.637,294.3714v-0.58672a107.0662,107.0662,0,0,1,30.78608-75.79426,103.013,103.013,0,0,1,34.158-22.72369,111.83067,111.83067,0,0,1,43.24886-8.2099,123.95637,123.95637,0,0,1,28.73423,3.07944,98.28217,98.28217,0,0,1,23.60377,8.79578,94.53139,94.53139,0,0,1,19.35173,13.63455,112.39737,112.39737,0,0,1,15.393,17.299l-42.80882,33.13212a74.02244,74.02244,0,0,0-19.35173-17.5924q-10.55344-6.44558-25.50894-6.45058a45.54513,45.54513,0,0,0-19.79177,4.252,47.37672,47.37672,0,0,0-15.393,11.58187,54.16481,54.16481,0,0,0-10.1159,17.299,60.66,60.66,0,0,0-3.66533,21.11105v0.58589a62.7337,62.7337,0,0,0,3.66533,21.55109,53.76589,53.76589,0,0,0,10.1159,17.44572,47.23673,47.23673,0,0,0,15.393,11.58187,45.47381,45.47381,0,0,0,19.79177,4.252,56.26778,56.26778,0,0,0,14.51463-1.75932A44.19909,44.19909,0,0,0,928.779,341.7248a65.13077,65.13077,0,0,0,10.26258-7.91654,118.982,118.982,0,0,0,9.52918-10.1159l42.80882,30.49355a153.00359,153.00359,0,0,1-15.97976,18.47248,91.93554,91.93554,0,0,1-19.64509,14.66047,102.64469,102.64469,0,0,1-24.63053,9.67586A122.80818,122.80818,0,0,1,900.48477,400.51337Z"/>
      <path class="cls-1" d="M1096.34557,399.92665a159.27518,159.27518,0,0,1-52.33634-8.5541,126.83419,126.83419,0,0,1-43.83558-25.669l31.66616-37.90672q30.78775,24.6297,66.55927,24.6297,11.43352,0,17.44489-3.65616a11.534,11.534,0,0,0,6.0122-10.39509v-0.58172a11.0607,11.0607,0,0,0-1.4668-5.708,14.96681,14.96681,0,0,0-5.42382-4.82876,56.07268,56.07268,0,0,0-10.55594-4.5354q-6.59809-2.2002-17.1532-4.54041-16.424-3.80034-30.49272-8.33824a93.27542,93.27542,0,0,1-24.48385-11.71021,53.01682,53.01682,0,0,1-16.4198-17.85326q-6.013-10.6797-6.01054-26.48986v-0.58172a63.14522,63.14522,0,0,1,5.42548-26.34318,58.3999,58.3999,0,0,1,15.83308-20.781,74.50848,74.50848,0,0,1,25.0689-13.61121,105.73428,105.73428,0,0,1,33.133-4.82876q26.38736,0,47.0592,6.93645a118.722,118.722,0,0,1,37.385,20.50183l-28.44254,40.29276a115.45528,115.45528,0,0,0-28.88091-15.09968,87.22975,87.22975,0,0,0-28.58755-5.13129q-10.26592,0-15.393,3.807-5.133,3.80659-5.13213,9.36417v0.58672a11.50534,11.50534,0,0,0,1.61348,6.143,14.61485,14.61485,0,0,0,5.5705,4.83376,61.13565,61.13565,0,0,0,10.8493,4.38872q6.88561,2.19895,17.44489,4.5354a251.09915,251.09915,0,0,1,31.81451,8.925,95.33047,95.33047,0,0,1,24.18882,12.44278,49.79712,49.79712,0,0,1,15.24636,17.70741q5.278,10.38968,5.2788,24.72971V333.194q0,15.80641-6.01054,28.09751a60.34336,60.34336,0,0,1-16.85984,20.9277,76.33505,76.33505,0,0,1-26.09566,13.172A119.11,119.11,0,0,1,1096.34557,399.92665Z"/>
    </g>
    <g>
      <path class="cls-1" d="M614.14817,390.95628l-14.56827,3.097a29.95782,29.95782,0,0,0-21.53238-21.33876l10.76942-63.04625-21.52216,50.91661-2.00135,11.71685a29.698,29.698,0,0,0-3.29219.807l-9.84862,23.29923h2.17292a17.20244,17.20244,0,0,1,32.77242,0h24.86922Z"/>
      <path class="cls-1" d="M419.90707,395.51054a29.57314,29.57314,0,0,0-1.98521-15.08461l23.82632-29.69268a98.37619,98.37619,0,0,1-13.39952-3.50169l-17.98794,22.41634a29.82927,29.82927,0,0,0-12.52067-6.79523l5.6496-27.84408c-3.3605-2.20277-6.68389-4.59084-9.96-7.21179l-1.95079,2.33562-6.53975,32.22892a29.79974,29.79974,0,0,0-16.45667,8.96223,124.94509,124.94509,0,0,0,10.51932,7.37745,17.18569,17.18569,0,0,1,28.41044,13.037c0,0.07933-.01076.156-0.01183,0.23531Q413.619,394.00039,419.90707,395.51054Z"/>
      <path class="cls-1" d="M853.37148,180.28755c1.32419-.54888,2.66452-1.06549,4.0113-1.567a29.84825,29.84825,0,0,0-37.96646,22.68473A120.76865,120.76865,0,0,1,853.37148,180.28755Z"/>
      <path class="cls-1" d="M946.314,160.41525l-1.925,16.4884a114.20689,114.20689,0,0,1,12.185,4.66264l2.4354-20.86383A29.85386,29.85386,0,1,0,946.314,160.41525Zm7.00445-46.22089a17.20859,17.20859,0,1,1-17.20913,17.20913A17.22907,17.22907,0,0,1,953.31844,114.19436Z"/>
      <path class="cls-1" d="M766.98055,387.13941a17.20773,17.20773,0,0,1-3.55413-34.04471l-41.53027-98.25138a17.19413,17.19413,0,1,1-13.385-31.665l-4.91866-11.63751a29.9656,29.9656,0,0,0-17.59208,19.88844l-58.308-13.7311L622.69949,229.511l62.72381,14.77077a29.89207,29.89207,0,0,0,29.40385,24.73987c0.78311,0,1.55654-.0398,2.3246-0.09923L750.455,345.08607a29.90368,29.90368,0,0,0-12.85951,19.62623L710.193,370.53778l4.853,11.8938,23.06634-4.90387a29.96487,29.96487,0,0,0,15.1357,18.88023h27.49448c0.27162-.142.53839-0.29178,0.80516-0.44185l-4.97029-11.7588A17.10931,17.10931,0,0,1,766.98055,387.13941Z"/>
      <path class="cls-1" d="M728.44611,228.69239a17.10486,17.10486,0,0,1,3.39439,8.02933l7.93924,18.78315a29.63915,29.63915,0,0,0,4.89715-16.334c0-.05-0.00323-0.099-0.00377-0.149l53.82935-13.29867a121.00388,121.00388,0,0,1,12.5524-16.124l-69.128,17.07843a29.94164,29.94164,0,0,0-21.43234-16.79794Z"/>
      <path class="cls-1" d="M1068.91046,172.89988a17.20373,17.20373,0,1,1,33.52542-1.03429q6.45423,0.42356,12.60081,1.28009a29.85065,29.85065,0,1,0-58.51243,2.33025A112.3989,112.3989,0,0,1,1068.91046,172.89988Z"/>
      <path class="cls-1" d="M208.20406,283.9734a29.57507,29.57507,0,0,0,2.3644,7.49094V266.30441a29.64222,29.64222,0,0,0-1.76685,4.80222L152.51294,257.404v13.01226Z"/>
      <path class="cls-1" d="M822.33955,221.25927a29.80262,29.80262,0,0,0,49.95735,4.24608l44.4535,15.25323a43.717,43.717,0,0,1,5.82333,1.99812l13.584,4.661-0.43727,3.74614a80.42876,80.42876,0,0,1,11.35191,11.79537l1.32419-11.342,9.29194,3.18839,11.96453-9.25994-19.75639-6.77909,4.68523-40.13482a93.11536,93.11536,0,0,0-12.11405-5.27042l-4.81,41.20595-59.90009-20.55349a29.74563,29.74563,0,0,0-4.29744-23.36969,103.92727,103.92727,0,0,0-12.88157,4.22429,17.19385,17.19385,0,1,1-28.46638,16.98108c-2.31492,1.9481-4.55453,3.98387-6.68927,6.14093C824.36725,219.0573,823.34587,220.1521,822.33955,221.25927Z"/>
      <path class="cls-1" d="M936.16741,313.24763l5.84484-6.94072,2.42087-20.73771-0.10273.0796-9.95188-12.60161c-0.3496-.44292-0.70674-0.86514-1.06172-1.29407l-5.92122,50.72459c0.18072-.16512.36682-0.32083,0.54592-0.48918A103.4066,103.4066,0,0,0,936.16741,313.24763Z"/>
      <path class="cls-1" d="M1062.7698,345.83368a114.847,114.847,0,0,1-29.0564-16.59248l55.2439,70.52482q3.66923,0.15611,7.38848.16055c2.9313,0,5.79267-.0909,8.59542-0.25682Z"/>
      <path class="cls-1" d="M1021.99843,314.28568l1.883-2.25414q-0.40016-.26946-0.79548-0.54242a71.823,71.823,0,0,1-9.07572-7.40112Z"/>
      <path class="cls-1" d="M1120.5174,190.45054a164.1775,164.1775,0,0,0-31.20727-2.80705,106.88254,106.88254,0,0,0-31.80321,4.42491L1014.99344,240.999a29.89169,29.89169,0,0,0-3.695-1.95025,67.721,67.721,0,0,0-1.43983,13.77144,17.13342,17.13342,0,0,1,3.83435,22.90283,40.65271,40.65271,0,0,0,2.167,4.55642,52.56816,52.56816,0,0,0,4.69491,6.96089,30.08576,30.08576,0,0,0,3.72624-4.60886l94.81962,27.49663c-0.08444.9122-.13339,1.83461-0.13339,2.76833a29.84941,29.84941,0,0,0,59.025,6.30793,46.36425,46.36425,0,0,0-3.94622-11.32663,49.797,49.797,0,0,0-15.2465-17.70745,82.66563,82.66563,0,0,0-11.63805-7.06711,29.87275,29.87275,0,0,0-24.23724,14.97l-94.12848-27.29628a29.978,29.978,0,0,0,.32863-4.41658,29.67476,29.67476,0,0,0-5.02946-16.561l47.60209-54.78726a29.768,29.768,0,0,0,31.5402-2.40232l54.65334,44.94537,7.311-10.35742Zm28.30072,105.23782a17.20859,17.20859,0,1,1-17.20913,17.20805A17.22815,17.22815,0,0,1,1148.81812,295.68836Z"/>
      <path class="cls-1" d="M928.77893,341.72476a41.89059,41.89059,0,0,1-3.87523,2.09924l-6.42357,55.02661a29.56754,29.56754,0,0,0-3.652.96329,108.61027,108.61027,0,0,0,16.29585-2.81915c0.10542-.02716.20707-0.05782,0.312-0.08525l7.33792-62.86123A65.06466,65.06466,0,0,1,928.77893,341.72476Z"/>
      <path class="cls-1" d="M999.27363,296.21115a29.723,29.723,0,0,0,7.06738-.86621,68.66579,68.66579,0,0,1-4.61047-7.11041c-0.84712-1.50464-1.62055-3.066-2.33589-4.67125-0.04088.00027-.08014,0.00619-0.121,0.00619a17.1994,17.1994,0,0,1-5.57-33.47486q0.05647-1.39331.14952-2.77424l-24.425,18.9039c0,0.04572-.0043.09036-0.0043,0.13608A29.88356,29.88356,0,0,0,999.27363,296.21115Z"/>
      <path class="cls-1" d="M226.78363,265.542a17.20914,17.20914,0,1,1,0,26.71352v12.96439c0,0.50262.00861,0.99261,0.01775,1.48178a29.57344,29.57344,0,0,0,3.6219,1.16687l-1.77706,12.07613a17.96153,17.96153,0,0,0,3.851,7.08567,16.47192,16.47192,0,0,0,7.22282,4.50182l3.42935-23.30541A29.82849,29.82849,0,0,0,256.8157,256.068l12.59919-17.66738V216.627l-23.886,33.49449a29.589,29.589,0,0,0-18.74523.98642V265.542Z"/>
      <path class="cls-1" d="M400.40562,406.7c-0.34423-.11887-0.68361-0.24714-1.02622-0.36843a17.15452,17.15452,0,0,1-26.09929-12.20118,141.94938,141.94938,0,0,1-12.241-8.1767c-0.03012.15248-.07261,0.30012-0.10058,0.45341l-37.17528,7.0179a95.82182,95.82182,0,0,1-31.66767,16.69628c-13.357,4.1896-28.35666,6.31385-44.58259,6.31385a157.792,157.792,0,0,1-32.589-3.23733l-0.419,2.84578a29.91838,29.91838,0,1,0,13.392,8.34424l133.496-25.20161a29.83746,29.83746,0,0,0,52.02539,11.41511Q406.81817,408.90508,400.40562,406.7ZM206.008,461.86324a17.20859,17.20859,0,1,1,17.20805-17.20805A17.22815,17.22815,0,0,1,206.008,461.86324Z"/>
      <path class="cls-1" d="M136.29776,253.45673l-63.47734-15.4525a29.84409,29.84409,0,1,0-.59809,12.86677l64.07543,15.598V253.45673Zm-92.88684,6.83019A17.20859,17.20859,0,1,1,60.619,243.07886,17.22815,17.22815,0,0,1,43.41092,260.28691Z"/>
      <path class="cls-1" d="M341.19775,174.94695a29.85756,29.85756,0,1,0-47.7188,0h47.7188Zm-23.86613-35.11638a17.20914,17.20914,0,1,1-9.52106,31.53214l-0.37542-.26758A17.19372,17.19372,0,0,1,317.33162,139.83056Z"/>
      <path class="cls-1" d="M583.9569,412.62312a17.18306,17.18306,0,0,1-26.49031,0H542.9591a29.82027,29.82027,0,0,0,55.48055,0H583.9569Z"/>
      <path class="cls-1" d="M935.17507,412.69573c-0.78849.20358-1.5985,0.38456-2.402,0.57281a17.2182,17.2182,0,1,1-21.086,3.07221c-3.64287.248-7.37181,0.38779-11.20239,0.38779-1.28654,0-2.56717-.02447-3.84457-0.061a29.53508,29.53508,0,0,0-1.02676,2.79549l-9.10477-3.47695a122.36322,122.36322,0,0,1-33.505-8.38189A120.09177,120.09177,0,0,1,827.67773,393.521l-32.95744-12.58521a29.82464,29.82464,0,0,0-18.58119-39.41329L796.67,390.09464l2.58008,6.10436,95.40749,36.43224a29.84662,29.84662,0,1,0,52.3836-23.60661Q941.309,411.1045,935.17507,412.69573Z"/>
      <path class="cls-1" d="M1285.722,300.97652a29.738,29.738,0,0,0-20.66429,8.33994L1177.76,237.525l-7.31157,10.35742,87.521,71.97487A29.84524,29.84524,0,1,0,1285.722,300.97652Zm0,47.05994a17.20913,17.20913,0,1,1,17.20913-17.20913A17.22815,17.22815,0,0,1,1285.722,348.03646Z"/>
      <path class="cls-1" d="M406.33006,179.46329a17.19189,17.19189,0,0,1,31.35411-7.40784c4.31465-.40366,8.74763-0.62714,13.314-0.62714,0.149,0,.29313.00726,0.44211,0.00753A29.81606,29.81606,0,0,0,393.82876,185.601,94.174,94.174,0,0,1,406.33006,179.46329Z"/>
      <path class="cls-1" d="M1152.69012,403.83273a99.22726,99.22726,0,0,1-14.23534,5.986,17.22668,17.22668,0,1,1-18.19716,4.44831,144.06457,144.06457,0,0,1-18.543,1.78486l2.11161,2.696A29.85384,29.85384,0,1,0,1152.69012,403.83273Z"/>
      <path class="cls-1" d="M499.39413,278.895c-1.01654-.3972-2.04384-0.78849-3.09534-1.16768q-8.62285-3.10287-18.48653-5.72033l4.525,7.94354-31.09486,38.75038q7.88868,1.814,13.36886,3.54068l24.45615-30.47741,42.80606,75.14363a61.24787,61.24787,0,0,0,3.12869-5.61626,55.73006,55.73006,0,0,0,3.32016-8.6051l-40.74555-71.52657Z"/>
      <path class="cls-1" d="M507.00152,255.37471l28.44056-40.29295c-0.213-.17265-0.434-0.33132-0.64811-0.50235L503.81044,253.191C504.877,253.90072,505.94141,254.62413,507.00152,255.37471Z"/>
      <path class="cls-1" d="M415.85167,210.506l-18.25417,89.96281a89.27442,89.27442,0,0,0,11.69022,5.96478l19.36484-95.43626A29.68347,29.68347,0,0,0,440.318,206.1881l16.71323,29.33877A88.87145,88.87145,0,0,1,473.4406,238.79l-24.14043-42.37632a29.6686,29.6686,0,0,0,2.91516-7.05044l70.23546,16.54a119.74306,119.74306,0,0,0-24.39268-11.32341q-20.67048-6.93426-47.05994-6.93641c-4.04411,0-7.93709.19148-11.7069,0.53893a17.16994,17.16994,0,0,1-27.16585,6.41954,76.20279,76.20279,0,0,0-11.74831,5.97957A29.89781,29.89781,0,0,0,415.85167,210.506Z"/>
      <path class="cls-1" d="M537.62414,196.48767c2.74251,1.90669,5.43392,3.89163,8.03713,6.00458l11.7709,9.55441-1.26772,1.79589,34.79744,8.19445L579.234,290.69225l21.52216-50.91687,2.53436-14.835,3.39815,0.80032,4.99342-11.81258-6.259-1.474,7.75207-45.38076a29.86447,29.86447,0,1,0-30.131-12.6234l-35.59023,44.35266Zm70.13273-75.97246a17.20913,17.20913,0,1,1-17.20913,17.20913A17.22907,17.22907,0,0,1,607.75687,120.51521Zm-15.53049,42.692a29.68793,29.68793,0,0,0,8.19472,3.45328l-7.32663,42.89023-32.0076-7.53746Z"/>
      <polygon class="cls-1" points="303.102 191.162 287.575 191.162 285.63 193.889 285.63 215.662 303.102 191.162"/>
      <path class="cls-1" d="M453.59546,335.9692l0.00538-.00645q-3.67084-.95321-8.16783-1.9516l-0.071-.01587-0.071-.0164q-2.67286-.6184-5.29569-1.26126l-0.71588.89149A82.04241,82.04241,0,0,0,453.59546,335.9692Z"/>
      <polygon class="cls-1" points="694.897 375.973 684.629 375.973 633.235 386.898 627.585 401.025 698.93 385.857 694.897 375.973"/>
      <path class="cls-1" d="M237.34275,347.68712a33.79026,33.79026,0,0,1-11.97744-5.44818l-8.07908,54.904a125.402,125.402,0,0,0,12.47549,2.06482Z"/>
    </g>
  </g>
</svg>
